<?xml version="1.0" encoding="UTF-8" standalone="no"?>
<!-- Created with Inkscape (http://www.inkscape.org/) -->

<svg
   xmlns:dc="http://purl.org/dc/elements/1.1/"
   xmlns:cc="http://creativecommons.org/ns#"
   xmlns:rdf="http://www.w3.org/1999/02/22-rdf-syntax-ns#"
   xmlns:svg="http://www.w3.org/2000/svg"
   xmlns="http://www.w3.org/2000/svg"
   xmlns:sodipodi="http://sodipodi.sourceforge.net/DTD/sodipodi-0.dtd"
   xmlns:inkscape="http://www.inkscape.org/namespaces/inkscape"
   id="svg3058"
   version="1.1"
   inkscape:version="0.48.2 r9819"
   width="300"
   height="300"
   sodipodi:docname="SkullWithHatVectorVP.jpg">
  <metadata
     id="metadata3064">
    <rdf:RDF>
      <cc:Work
         rdf:about="">
        <dc:format>image/svg+xml</dc:format>
        <dc:type
           rdf:resource="http://purl.org/dc/dcmitype/StillImage" />
        <dc:title></dc:title>
      </cc:Work>
    </rdf:RDF>
  </metadata>
  <defs
     id="defs3062" />
  <sodipodi:namedview
     pagecolor="#ffffff"
     bordercolor="#666666"
     borderopacity="1"
     objecttolerance="10"
     gridtolerance="10"
     guidetolerance="10"
     inkscape:pageopacity="0"
     inkscape:pageshadow="2"
     inkscape:window-width="1777"
     inkscape:window-height="913"
     id="namedview3060"
     showgrid="false"
     inkscape:zoom="1.4152242"
     inkscape:cx="237.73551"
     inkscape:cy="86.754645"
     inkscape:window-x="0"
     inkscape:window-y="0"
     inkscape:window-maximized="0"
     inkscape:current-layer="svg3058" />
  <g
     id="g3068">
    <path
       style="fill:#c8c8c8;fill-opacity:1"
       d="m 102.75,291.44701 c -0.4125,-0.42919 -0.75495,-2.39284 -0.76101,-4.36368 -0.0245,-7.97036 -1.08062,-10.87803 -4.861415,-13.38402 -3.483528,-2.30895 -3.896039,-3.24841 -10.388393,-23.65883 l -6.760818,-21.25441 -5.132182,-4.64304 c -2.822699,-2.55366 -5.630331,-4.81399 -6.239182,-5.02293 -0.60885,-0.20895 -2.550527,-0.96556 -4.314837,-1.68136 l -3.207836,-1.30145 2.457836,-6.04878 c 1.35181,-3.32682 2.457187,-6.17021 2.456392,-6.31864 -7.95e-4,-0.14843 -5.288295,-0.28616 -11.75,-0.30608 C 42.542921,203.42771 32.497532,201.37474 24.958031,197.4777 19.099946,194.44975 9.5093414,186.29593 6.8193086,182.05637 1.2791344,173.32493 -0.00149098,166.75583 0.01337805,147.14466 0.02612513,130.33222 0.16161033,129.11259 2.8859311,121.28616 8.1160548,106.26105 15.623064,97.448633 28.314214,91.436114 40.595516,85.617763 58.134512,82.106716 59.216168,85.25 c 0.23658,0.6875 0.05601,10.61015 -0.401257,22.05033 -0.560353,14.01911 -0.493035,21.43258 0.206487,22.73965 4.254409,7.94944 40.299122,11.99656 73.978602,8.30636 l 5.5,-0.60262 -4.97276,4.37814 c -2.73502,2.40798 -10.61002,9.51035 -17.5,15.78304 -15.36492,13.98834 -23.608969,20.30104 -30.924184,23.6795 -9.657831,4.46038 -9.868831,4.65197 -8.138861,7.39038 0.812694,1.28643 1.618584,1.2413 6.310053,-0.35338 8.186173,-2.78257 19.220102,-10.84184 35.864402,-26.19565 20.60055,-19.00333 30.67187,-27.38884 41.86135,-34.8543 18.8683,-12.58866 40.80853,-22.62207 63,-28.810324 14.82246,-4.133349 31.84156,-4.915276 41.71429,-1.916525 3.81373,1.158383 8.58817,3.228669 10.60988,4.600639 2.02171,1.37197 3.67583,2.15313 3.67583,1.73591 0,-1.26808 -10.53052,-7.229844 -15.6707,-8.871844 -7.35951,-2.350947 -25.5942,-2.121618 -37.3293,0.469474 -21.99035,4.855436 -47.31116,15.45853 -68.04028,28.4919 l -10.54029,6.62716 -34.45971,-3.87553 C 63.784347,120.3793 62,120.09573 62,117.76473 c 0,-3.51448 8.002027,-48.074 10.518435,-58.572215 4.566306,-19.050194 10.610967,-33.418073 16.140143,-38.36437 4.281887,-3.830495 11.797592,-5.16452 25.194452,-4.47197 6.95583,0.359582 13.96302,1.012339 15.57152,1.450572 l 2.92454,0.796788 -4.938,2.124272 c -7.42643,3.194764 -13.96384,4.582709 -18.94219,4.021577 -4.76951,-0.537593 -5.8035,0.465991 -2.37216,2.302391 3.59139,1.922054 13.12634,0.133303 21.89624,-4.107724 15.60673,-7.54724 22.52617,-8.366948 42.15765,-4.994185 13.39338,2.301035 26.99269,6.113193 34.53279,9.680232 3.82941,1.811598 6.18277,3.774808 8.04946,6.714984 6.86716,10.816263 13.61796,32.434112 14.88956,47.680318 l 0.62765,7.525399 19.12496,-0.0254 c 18.39958,-0.02444 19.42837,0.08066 27.12495,2.770964 18.92395,6.614782 28.517,19.034947 22.9769,29.748297 -4.49847,8.69909 -26.11943,19.91144 -46.52137,24.1254 -4.35299,0.89909 -5.95553,1.67138 -5.95553,2.87005 0,4.29864 -4.33567,17.74157 -8.4495,26.19802 -4.82284,9.91393 -14.03173,22.11275 -18.08814,23.96098 -1.92859,0.87872 -3.53308,0.66871 -8.02542,-1.05041 -3.0882,-1.18178 -5.76405,-2.1487 -5.94633,-2.1487 -0.18228,0 -0.63615,2.84552 -1.0086,6.32337 -1.3796,12.88249 2.2716,29.5921 7.73745,35.41023 1.16697,1.24218 1.93249,2.42864 1.70115,2.63658 -0.23134,0.20793 -5.59561,3.73636 -11.92061,7.84095 -6.325,4.10459 -18.81033,12.26124 -27.74518,18.12588 C 160.69376,274.58182 156.24289,277 153.62868,277 c -3.16894,0 -3.6116,0.43894 -7.05934,7 l -3.6784,7 -11.69547,0.006 c -6.43251,0.003 -15.29547,0.27945 -19.69547,0.61368 -4.4,0.33423 -8.3375,0.25653 -8.75,-0.17266 z m 38.1024,-15.4413 c 4.05235,-6.04657 4.74174,-6.60145 10,-8.04878 9.85639,-2.71295 23.9952,-10.76312 40.08096,-22.82077 4.13547,-3.09989 7.85658,-5.88112 8.26912,-6.18052 0.41255,-0.2994 -0.25174,-2.5494 -1.4762,-5 -2.0768,-4.15648 -2.22266,-5.746 -2.1723,-23.67387 0.0443,-15.78261 -0.20178,-19.31638 -1.37675,-19.76725 -2.93708,-1.12707 -8.01377,5.82861 -10.59293,14.51357 -1.74946,5.89108 -2.15303,24.81735 -0.66575,31.22191 0.88342,3.80424 0.3726,4.64115 -1.61789,2.65066 -1.81703,-1.81703 -5.05349,-0.0478 -8.98478,4.9117 -2.04371,2.5782 -4.03778,5.07707 -4.43127,5.55305 -0.39349,0.47598 -2.25847,-0.31152 -4.14441,-1.75 -3.45939,-2.6386 -5.33212,-3.38218 -4.29603,-1.70575 0.71901,1.16339 -3.07298,10.09034 -4.28619,10.09034 -0.5022,0 -1.47329,-0.675 -2.15798,-1.5 -1.89261,-2.28046 -2.56137,-1.85909 -4.00846,2.52564 l -1.32858,4.02564 -2.6362,-2.52564 C 143.57685,257.13654 142.12213,256 141.79406,256 c -0.32808,0 -1.56097,1.63464 -2.73976,3.63253 l -2.14324,3.63254 -2.59271,-2.38254 c -1.52849,-1.40459 -2.75643,-1.92766 -2.99159,-1.27434 -0.21939,0.6095 -1.00663,1.93933 -1.74943,2.95517 -1.2929,1.76815 -1.50194,1.73152 -4.89722,-0.85819 C 122.72944,260.21733 120.91417,259 120.64618,259 c -0.268,0 -0.78265,1.34484 -1.14366,2.98853 -0.92735,4.2222 -2.25771,4.62019 -5.39541,1.61409 l -2.73037,-2.61586 -1.67219,3.50662 -1.67219,3.50662 13.23382,0.0677 c 15.03121,0.0769 14.71812,0.70161 -2.01618,4.02297 l -11.25,2.23285 0,3.7687 c 0,4.63962 0.2554,4.70983 16.5,4.53612 l 12,-0.12832 4.3524,-6.49429 z M 103.5,266 c -0.99549,-1.1 -2.20606,-2 -2.69017,-2 -0.48411,0 -0.39853,0.9 0.19017,2 0.5887,1.1 1.79928,2 2.69017,2 1.42968,0 1.40736,-0.23475 -0.19017,-2 z m 4.40819,-7.61062 c -1.11038,-1.33793 -1.41715,-1.24116 -2.5042,0.79001 -1.77528,3.31715 0.25082,5.75845 2.32336,2.79948 1.17379,-1.67581 1.20786,-2.35202 0.18084,-3.58949 z m 8.8042,-0.30045 c 0.95894,-1.53552 0.91096,-2.01949 -0.2442,-2.46276 -1.50068,-0.57587 -3.87395,2.63473 -2.76634,3.74235 1.03817,1.03816 1.75276,0.73443 3.01054,-1.27959 z m -14.01933,-9.07233 c -0.86184,-5.35156 -1.12334,-5.79298 -3.016849,-5.09253 -3.733788,1.38122 -4.105233,5.28414 -0.993231,10.43627 2.58398,4.27796 2.84715,4.45188 3.86329,2.5532 0.75041,-1.40215 0.79618,-3.86458 0.14679,-7.89694 z m 26.11727,7.71801 c 0.45316,-2.33592 -3.50276,-4.23476 -5.45205,-2.61699 -1.32704,1.10134 -1.22659,1.47724 0.81392,3.04571 2.64939,2.0365 4.18746,1.89433 4.63813,-0.42872 z m 9.10768,-1.58141 c 1.8393,-3.43676 -2.45606,-5.61967 -5.00782,-2.54499 -1.13401,1.3664 -1.0485,1.81748 0.56869,3 2.50809,1.83396 3.25509,1.7574 4.43913,-0.45501 z M 111.35278,248.5 c -0.75616,-6.43179 -0.86281,-6.56677 -4.25439,-5.38446 -2.77441,0.96717 -2.8285,1.1179 -1.86262,5.19028 1.14134,4.81217 4.58345,8.5978 5.89877,6.48746 0.44334,-0.7113 0.54154,-3.54328 0.21824,-6.29328 z M 146.33683,247.20699 144.5,244.5 l -0.32046,3.3452 c -0.17625,1.83985 -0.048,4.05507 0.28489,4.9227 0.50941,1.32751 0.85128,1.22638 2.15729,-0.63821 1.41783,-2.02424 1.39321,-2.44963 -0.28489,-4.9227 z m -26.23591,4.739 c 1.61429,-0.86394 1.85888,-1.72051 1.35635,-4.75 -1.06487,-6.41948 -1.08487,-6.43993 -4.54793,-4.64911 -2.7528,1.42353 -3.05312,1.9842 -2.51203,4.68967 0.5675,2.83751 2.23819,5.76345 3.29088,5.76345 0.24381,0 1.32954,-0.47431 2.41273,-1.05401 z M 130.8,250.8 c 1.36538,-1.36538 1.58734,-7.64097 0.33983,-9.60799 -0.84812,-1.33728 -5.67532,-0.75261 -6.6373,0.8039 -0.55991,0.90595 1.34553,6.93862 2.76501,8.75409 1.2218,1.56264 2.00868,1.57378 3.53246,0.05 z m 23.77381,-4.05 c -0.3719,-1.7875 -0.94273,-5.40348 -1.26849,-8.0355 -0.64426,-5.20522 -1.61961,-5.51354 -4.64078,-1.467 l -1.95716,2.6214 3.25056,5.06555 c 3.7609,5.86085 5.60875,6.58766 4.61587,1.81555 z M 141,242.96482 c 0,-5.70199 -0.10915,-5.97677 -1.97708,-4.97709 -1.0874,0.58196 -2.47773,1.99357 -3.08963,3.13692 -0.93588,1.74872 -0.67163,2.53903 1.66417,4.97708 1.5272,1.59405 2.91753,2.89827 3.08963,2.89827 0.1721,0 0.31291,-2.71583 0.31291,-6.03518 z m 24.50148,-3.96036 C 164.58726,236.25201 163.34836,234 162.74837,234 c -1.49046,0 -4.75778,3.05728 -4.70761,4.40499 0.0544,1.46128 8.36694,7.58059 8.79109,6.47159 0.18251,-0.47722 -0.41615,-3.11967 -1.33037,-5.87212 z m -65.30387,-3.76045 0.3067,-4.74401 2.45961,4.77573 c 1.58874,3.0848 2.94469,4.58958 3.82963,4.25 0.75351,-0.28915 1.78322,-0.52573 2.28824,-0.52573 0.50501,0 0.95464,-2.1375 0.99916,-4.75 l 0.081,-4.75 1.89131,4 c 1.04023,2.2 2.03613,4.39698 2.21312,4.88218 0.17698,0.48519 1.76446,0.13614 3.52773,-0.77568 2.5918,-1.34028 3.21015,-2.27552 3.2279,-4.88218 l 0.022,-3.22432 1.94768,4.29138 1.94767,4.29138 3.03037,-1.56706 C 130.78358,235.06056 131,234.55767 131,229.47432 c 0,-5.98401 1.43699,-7.31415 2.52924,-2.34118 1.00447,4.57332 2.20596,1.87173 3.01706,-6.784 l 0.67918,-7.24781 -4.96229,-5.80067 C 126.4435,200.49775 121,192.61886 121,190.9984 c 0,-0.62769 0.7875,-0.35288 1.75,0.61069 5.10243,5.1081 28.19393,17.29816 32.90876,17.37261 2.40959,0.038 23.66402,-26.11211 22.24283,-27.36623 C 176.39991,180.29032 163.59735,173 162.77193,173 c -0.56301,0 -6.08538,2.7 -12.27193,6 -6.18655,3.3 -11.89572,6 -12.68705,6 -0.79132,0 -2.73215,-1.35 -4.31295,-3 -1.5808,-1.65 -3.47191,-3 -4.20247,-3 C 127.56673,179 104,190.8115 104,191.67897 c 0,0.36495 0.59402,1.37398 1.32005,2.24229 1.69739,2.03001 13.67995,20.76872 13.67995,21.39312 0,0.26007 -5.3321,-1.20997 -11.84911,-3.26676 l -11.849109,-3.73961 -3.900891,6.096 L 87.5,220.5 86.990337,211 86.480674,201.5 84.398415,206 c -3.366512,7.27542 -3.693123,11.78016 -1.155354,15.93509 10.406111,17.03727 12.784897,20.12031 14.723646,19.08273 1.400397,-0.74947 2.00769,-2.32121 2.230903,-5.77381 z M 151.27866,224.787 c -3.30553,-3.39768 -3.72281,-3.56752 -4.91367,-2 -0.71576,0.94215 -1.31569,4.07896 -1.33319,6.97069 l -0.0318,5.25768 4.94548,-3.25768 4.94547,-3.25769 -3.61229,-3.713 z m 16.18133,1.1268 c 6.43229,-3.02353 6.58769,-3.38661 5.22405,-12.20608 l -1.19556,-7.73243 -5.74424,7.9423 C 161.72397,219.47623 160,222.78127 160,224.92994 c 0,3.70645 1.30248,3.87823 7.45999,0.98386 z m 51.64449,-47.58286 c 1.13279,-1.83288 1.7738,-4.08558 1.44149,-5.06579 -1.60726,-4.74088 -10.73425,-12.09619 -20.75475,-16.72595 -11.06251,-5.11119 -10.93398,-5.11287 -23.66054,0.30952 l -11.36932,4.84412 6.11932,1.2039 c 3.36563,0.66215 6.11932,1.39868 6.11932,1.63674 0,0.23805 -2.3625,1.63552 -5.25,3.10548 -3.18324,1.62052 -4.68553,2.86509 -3.81613,3.16147 0.78863,0.26885 11.36363,3.49565 23.5,7.17068 24.46525,7.40834 23.32357,7.39349 27.67061,0.35983 z M 37,162.43589 c 5.225,-1.32588 18.510956,-5.483 29.524346,-9.23803 l 20.024347,-6.82734 -7.689537,-1.20994 c -6.562998,-1.03268 -13.567905,-2.99893 -19.912014,-5.58923 -1.261109,-0.51491 -1.479016,-0.002 -1.159829,2.73254 0.330143,2.82792 -0.141405,3.81952 -2.947143,6.19747 -3.999513,3.38972 -14.047392,8.14036 -26.34017,12.45366 -4.95,1.73686 -9.45,3.61954 -10,4.18372 -1.42104,1.45769 6.888352,0.24369 18.5,-2.70285 z M 212.94835,63.360329 c 2.85429,-0.570857 3.1283,-0.92048 2.54709,-3.25 C 213.8728,53.60661 207.99288,50.707877 198.2583,51.612611 184.84232,52.859495 171.57216,47.303448 158.58045,35 l -7.91956,-7.5 2.88848,5.360225 c 7.76069,14.401745 27.84726,27.239324 46.98141,30.026412 8.11447,1.181957 8.75423,1.206362 12.41757,0.473692 z"
       id="path3080"
       inkscape:connector-curvature="0" />
    <path
       style="fill:#aaaaaa;fill-opacity:1"
       d="M 102.60699,289.41821 C 102.27314,288.54823 102,286.57948 102,285.04321 c 0,-6.17159 -1.19479,-8.90634 -4.987707,-11.41638 -2.26075,-1.49609 -4.035981,-3.61322 -4.450651,-5.30781 C 92.182242,266.76856 89.19272,257.175 85.918261,247 l -5.953564,-18.5 -5.237596,-4.59677 c -2.880678,-2.52822 -6.922734,-5.20612 -8.982348,-5.95089 C 61.420652,216.38873 61.299248,215.8006 64,209.5 c 1.1,-2.5662 1.999341,-4.966 1.998536,-5.33291 -8.04e-4,-0.3669 -5.063304,-0.70315 -11.25,-0.74723 C 37.68387,203.29829 25.935473,199.47034 14.936677,190.44806 8.2645154,184.9749 4.5159762,179.41036 1.9883384,171.22682 -0.63362582,162.73789 -0.87962829,135.20717 1.5810332,125.64434 5.3133885,111.13935 13.096016,100.21569 24.5,93.475389 32.250613,88.894406 44.596929,85.019521 52.367621,84.729151 L 58.5,84.5 l 0,22.82976 c 0,22.75112 0.0081,22.83634 2.34888,24.74036 7.08291,5.76131 32.890523,8.92406 59.65112,7.3103 8.8,-0.53067 16.10918,-0.91168 16.24263,-0.84668 0.43402,0.21141 -28.94103,26.80333 -36.19094,32.76205 -3.878432,3.18768 -10.65169,7.60243 -15.05169,9.81056 -9.358574,4.69658 -9.769061,5.02891 -8.925794,7.22643 0.958136,2.49687 4.195046,2.02915 11.531291,-1.66622 C 98.12271,181.62075 104.36373,176.55557 129.5,153.07103 150.87645,133.09925 171.05463,119.55299 194.46866,109.45549 234.46681,92.205948 260.64087,90.450333 280,103.71851 c 2.49906,1.71278 2.49932,1.71264 0.69417,-0.39297 C 275.76976,97.58148 259.77129,92.049941 248,92.021385 c -13.97593,-0.0339 -37.71609,6.018502 -58.37153,14.881455 -12.05628,5.17318 -20.97648,10.00043 -33.82526,18.30485 -6.14184,3.9696 -8.26311,4.85428 -10.5,4.37907 C 143.76144,129.25922 132.15,127.87829 119.5,126.51802 74.599208,121.6898 62,119.83606 62,118.05793 62,115.86863 67.459281,84.496391 70.623889,68.5 75.169888,45.520981 82.74401,25.706323 88.803716,20.939757 93.741479,17.055712 101.41106,15.666389 113.97776,16.379553 120.31499,16.739193 126.85,17.41855 128.5,17.889235 l 3,0.855791 -4.9652,2.184195 c -6.79819,2.99053 -14.01542,4.409448 -18.65485,3.667572 -4.27939,-0.684301 -5.19073,0.631333 -1.72292,2.487249 3.69182,1.975801 12.49084,0.209815 23.03396,-4.622978 12.40777,-5.687514 18.0585,-6.890673 28.56843,-6.082816 15.85786,1.218932 42.17856,7.955489 50.03543,12.80614 2.35394,1.453275 4.52674,4.501664 7.60871,10.674888 7.16701,14.355583 11.11225,28.423297 12.32308,43.94087 0.48216,6.179298 0.81557,7.19914 2.17149,6.642289 0.88103,-0.36182 7.67687,-0.891953 15.10187,-1.178072 19.67334,-0.758103 32.2999,2.222336 43.67403,10.309042 10.2144,7.262175 13.03517,16.386575 7.44956,24.097285 -6.52814,9.01184 -28.27953,19.55333 -47.15375,22.85237 -3.52748,0.61657 -3.53181,0.62393 -5.70112,9.70493 -3.64356,15.25238 -14.506,35.03753 -22.64429,41.2449 -4.07442,3.10771 -4.8231,3.11346 -11.32359,0.0869 l -5.19916,-2.42067 -0.68757,4.58506 c -0.95702,6.3819 0.28452,22.00067 2.21587,27.87601 0.88588,2.6949 2.99456,6.67047 4.68598,8.8346 1.69141,2.16414 2.64976,4.07992 2.12967,4.25731 -0.5201,0.17738 -7.92063,4.93436 -16.44563,10.57107 -37.73775,24.9521 -39.24791,25.86082 -42.44642,25.54159 -2.84694,-0.28414 -3.28814,0.14648 -6.51979,6.36348 -2.81006,5.40597 -4.01683,6.77837 -6.375,7.25 -1.59983,0.31997 -10.6794,0.58176 -20.1768,0.58176 -14.82368,0 -17.35393,-0.22391 -17.875,-1.58179 z M 140.25,277.52198 c 2.0625,-2.97117 3.75,-5.86004 3.75,-6.41971 0,-0.55967 3.2625,-1.98033 7.25,-3.15703 10.85982,-3.20469 22.2811,-9.75278 40.33951,-23.12758 6.15325,-4.55734 8.27058,-6.67738 7.77964,-7.78958 -3.52629,-7.98871 -4.3012,-12.09423 -4.25212,-22.52808 0.0284,-6.05 0.37827,-13.61742 0.77737,-16.81649 0.6394,-5.1253 0.49932,-5.93761 -1.17874,-6.83568 -4.17408,-2.2339 -10.76506,8.49767 -12.74239,20.74743 -1.10495,6.8453 -0.55623,19.88528 1.07631,25.57761 0.77636,2.70702 -0.25453,3.92256 -1.54958,1.82713 -0.33992,-0.55 -1.31942,-1 -2.17666,-1 -1.61427,0 -7.72445,5.71243 -10.57162,9.88344 l -1.62695,2.38344 -4.26241,-3.37589 c -2.94495,-2.33245 -4.04888,-2.81945 -3.57157,-1.5756 0.41149,1.07235 -0.16385,3.49541 -1.4229,5.99246 -2.75616,5.46627 -2.52058,5.3388 -4.77496,2.58381 l -1.95708,-2.39166 -1.67302,4 c -2.2166,5.29964 -2.07885,5.24206 -5.25679,2.1974 l -2.7731,-2.6568 -1.87394,3.4797 c -2.12116,3.93876 -3.06873,4.21767 -5.87636,1.7297 -1.25434,-1.11153 -2.11711,-1.34569 -2.3648,-0.64181 -0.21448,0.6095 -0.99771,1.93933 -1.74051,2.95517 -1.29084,1.76533 -1.5151,1.72148 -5.07236,-0.99177 -3.86789,-2.95019 -5.45251,-2.48274 -5.48966,1.61939 -0.0256,2.82357 -1.69347,2.95071 -4.76821,0.36349 l -2.92224,-2.45891 -1.64625,3.45222 -1.64625,3.45222 12.73382,0.0304 c 7.13564,0.017 12.07437,0.3885 11.23382,0.84494 -0.825,0.44799 -6.5625,1.85367 -12.75,3.12374 l -11.25,2.30921 0,3.67919 c 0,2.02355 0.3,3.97918 0.66667,4.34584 0.36666,0.36667 6.77916,0.6496 14.25,0.62873 l 13.58333,-0.038 3.75,-5.40213 z m -37.2463,-12.01804 c -2.68326,-2.85621 -3.689899,-2.65463 -2.04954,0.41041 0.61392,1.14711 1.85382,2.08565 2.75534,2.08565 1.33033,0 1.19736,-0.47024 -0.7058,-2.49606 z m 4.90449,-7.11456 c -1.11038,-1.33793 -1.41715,-1.24116 -2.5042,0.79001 -1.77528,3.31715 0.25082,5.75845 2.32336,2.79948 1.17379,-1.67581 1.20786,-2.35202 0.18084,-3.58949 z m 8.83078,-0.34302 c 0.85504,-1.36914 0.8983,-2.1525 0.14459,-2.61832 -1.41159,-0.87241 -4.31725,2.06122 -3.44287,3.476 0.98558,1.59469 1.91821,1.35217 3.29828,-0.85768 z m -13.87435,-8.92467 C 102.27154,245.75476 101.38438,243 100.89315,243 99.414357,243 96,246.888 96,248.57193 c 0,0.86456 1.180229,3.58584 2.622731,6.04728 2.468479,4.21214 2.702059,4.3621 3.971469,2.54977 1.07452,-1.53409 1.1295,-3.17021 0.27042,-8.04729 z m 26.0094,8.5301 c 1.6041,-1.93282 -1.9985,-5.06444 -4.80236,-4.17454 -2.66727,0.84656 -2.6225,2.02352 0.15085,3.96605 2.71458,1.90136 3.22747,1.92435 4.65151,0.20849 z m 9.04399,-2.49859 c 1.8393,-3.43676 -2.45606,-5.61967 -5.00782,-2.54499 -1.13401,1.3664 -1.0485,1.81748 0.56869,3 2.50809,1.83396 3.25509,1.7574 4.43913,-0.45501 z m -26.40317,-6.02409 c -0.82065,-6.73996 -1.40349,-7.50214 -4.76076,-6.22571 -2.45908,0.93494 -2.52679,1.16628 -1.54757,5.28716 1.0567,4.44694 4.24559,8.26609 5.99777,7.18319 0.60593,-0.37449 0.72755,-2.81997 0.31056,-6.24464 z m 35.15982,-1.97275 -2.17466,-2.34363 -0.32046,3.18883 c -0.17625,1.75386 -0.0603,3.86665 0.25755,4.6951 0.46759,1.21852 0.94423,1.05707 2.49512,-0.8452 1.89724,-2.32709 1.89457,-2.37575 -0.25755,-4.6951 z m -25.79617,4.49005 C 121.85346,250.47165 121.42598,241 120.398,241 c -0.18158,0 -1.87543,0.73689 -3.76411,1.63754 -3.26057,1.55486 -3.38119,1.79469 -2.38883,4.75 1.86566,5.55608 4.27373,7.10213 6.63343,4.25887 z M 130.8,250.8 c 1.30313,-1.30313 1.67259,-10.41765 0.45,-11.10144 -0.4125,-0.23071 -2.25646,0.21196 -4.09768,0.98371 -2.9471,1.23528 -3.26806,1.72714 -2.68228,4.11046 0.773,3.14501 3.2265,7.20727 4.35301,7.20727 0.42732,0 1.31695,-0.54 1.97695,-1.2 z m 23.14015,-8.46907 c -0.67723,-4.30701 -1.39259,-8.0202 -1.58968,-8.25154 -0.56044,-0.6578 -5.35047,4.13921 -5.35047,5.35827 0,1.51876 7.0523,11.84337 7.66868,11.22699 0.27654,-0.27653 -0.0513,-4.02671 -0.72853,-8.33372 z M 141,243.09362 c 0,-5.28627 -0.19718,-5.85482 -1.8781,-5.41525 -1.03296,0.27013 -2.40355,1.64438 -3.04577,3.05389 -1.03109,2.26299 -0.84801,2.89641 1.56519,5.41525 1.50307,1.56887 2.87367,2.85249 3.04577,2.85249 0.1721,0 0.31291,-2.65787 0.31291,-5.90638 z m 24.50148,-4.08916 C 164.58726,236.25201 163.34836,234 162.74837,234 c -1.4888,0 -4.75705,3.05598 -4.71096,4.40499 0.0521,1.52368 8.38621,7.74347 8.79444,6.56329 0.18251,-0.52765 -0.41615,-3.21137 -1.33037,-5.96382 z m -65.30387,-3.76045 0.3067,-4.74401 2.45961,4.77573 c 1.58874,3.0848 2.94469,4.58958 3.82963,4.25 0.75351,-0.28915 1.78322,-0.52573 2.28824,-0.52573 0.50501,0 0.95463,-2.1375 0.99915,-4.75 l 0.0809,-4.75 2.04392,4.75 c 1.12416,2.6125 2.45357,4.75 2.95425,4.75 2.41624,0 5.84306,-3.41568 5.88415,-5.86501 0.0417,-2.48884 0.154,-2.42699 2.02389,1.11501 2.25492,4.27136 2.56363,4.37343 5.76923,1.90759 1.71471,-1.319 2.52578,-3.24434 3.04477,-7.22776 l 0.70743,-5.42983 0.75577,3.77779 c 1.16223,5.80957 2.40372,3.57997 3.17724,-5.70603 l 0.70145,-8.42079 -5.87169,-6.97556 c -3.22943,-3.83656 -6.92389,-8.84771 -8.20992,-11.13588 l -2.33822,-4.16031 6.75851,4.62706 c 8.01146,5.48486 15.93908,9.56073 23.26122,11.95945 l 5.32388,1.74408 2.5299,-2.3549 c 6.14852,-5.72324 19.30589,-22.76263 19.3186,-25.01847 C 178.00094,181.006 164.20557,173 162.76993,173 c -0.5799,0 -6.36585,2.79502 -12.85765,6.21116 l -11.80329,6.21116 -3.99585,-3.21116 c -2.19773,-1.76614 -4.35975,-3.21648 -4.8045,-3.22299 -1.44111,-0.0211 -25.28579,11.48941 -25.2974,12.21175 -0.006,0.38496 3.36376,5.87614 7.48876,12.20263 4.125,6.32649 7.5,11.71831 7.5,11.98182 0,0.26352 -5.26188,-1.28864 -11.69308,-3.44924 -6.43119,-2.16059 -11.943689,-3.5582 -12.249997,-3.1058 -0.306308,0.45241 -1.906923,2.92508 -3.556923,5.49483 -1.65,2.56974 -3.31998,4.67307 -3.711067,4.67405 -0.391087,9.9e-4 -0.841087,-3.93571 -1,-8.74821 L 86.5,201.5 l -1.749839,3.20003 c -0.962412,1.76002 -2.231062,5.44389 -2.819224,8.1864 -1.234394,5.75578 -1.496188,5.09913 7.702619,19.32004 5.673126,8.77038 6.590985,9.74373 8.317107,8.81993 1.418204,-0.759 2.022765,-2.3148 2.246947,-5.78239 z m 51.03469,-4.09883 3.73231,-2.32185 -3.23231,-3.89364 c -3.70213,-4.45959 -4.27159,-4.65905 -5.69712,-1.99543 -1.55124,2.89853 -1.37168,12.38483 0.21482,11.34895 0.6875,-0.4489 2.92954,-1.86101 4.9823,-3.13803 z m 17.88237,-5.80411 c 5.35512,-2.91462 5.30203,-2.72569 3.5722,-12.71271 l -1.19023,-6.87165 -5.74832,7.98372 C 161.66799,219.40751 160,222.63468 160,224.86207 c 0,4.02959 2.36291,4.15377 9.11467,0.479 z m 51.12906,-48.17652 c 1.70131,-2.8801 1.68286,-2.98191 -1.19701,-6.60575 -5.45695,-6.86669 -14.10627,-12.47387 -26.2986,-17.04888 l -4.75189,-1.78307 -11.56183,4.86534 c -6.359,2.67593 -10.98523,5.05753 -10.2805,5.29244 0.70473,0.23491 3.5459,0.94701 6.31371,1.58243 L 177.5,164.62238 172,167.467 c -3.542,1.83194 -4.966,3.02939 -4,3.36363 0.825,0.28546 11.4,3.53473 23.5,7.22061 l 22,6.7016 2.50789,-2.33156 c 1.37934,-1.28235 3.28547,-3.64788 4.23584,-5.25673 z M 36.228575,162.92352 c 4.250716,-1.07534 15.500716,-4.66629 25,-7.97988 C 70.727859,151.63004 80.75,148.33265 83.5,147.6161 l 5,-1.30281 -6.5,-0.77323 c -5.729994,-0.68163 -18.627963,-3.99914 -23.08311,-5.93726 -1.276342,-0.55524 -1.503259,-0.14463 -1.171029,2.119 0.866791,5.90582 -6.284434,10.78869 -26.745861,18.26213 -6.325,2.31017 -12.175,4.62629 -13,5.14692 -2.312822,1.45956 9.28525,0.0551 18.228575,-2.20733 z M 215.69855,62.343177 c 0.89506,-2.332488 -1.63768,-6.382914 -5.72426,-9.154393 -3.11805,-2.114631 -4.19203,-2.29207 -10.47429,-1.730527 -14.74474,1.317967 -27.81622,-3.935069 -40.59006,-16.31193 -7.68118,-7.442464 -9.18771,-7.489159 -4.45858,-0.138194 7.6917,11.956014 25.7392,23.917186 40.54864,26.874048 3.025,0.603973 6.4,1.275362 7.5,1.491975 1.1,0.216613 4.37662,0.446042 7.28138,0.509843 4.06601,0.08931 5.4277,-0.265275 5.91717,-1.540822 z"
       id="path3078"
       inkscape:connector-curvature="0" />
    <path
       style="fill:#8c8c8c;fill-opacity:1"
       d="m 102.63029,288.75 c -0.33164,-1.2375 -0.60913,-3.68321 -0.61664,-5.4349 -0.021,-4.90272 -1.5397,-7.83576 -5.183326,-10.01057 C 93.658223,271.41116 93.191187,270.30601 87,250.04315 l -6.5,-21.27357 -6.200412,-5.29444 c -3.410226,-2.91195 -7.572726,-5.59586 -9.25,-5.96425 C 61.461219,216.72275 61.330765,215.72707 64,209.5 c 1.1,-2.5662 1.999649,-4.966 1.99922,-5.33291 -4.3e-4,-0.3669 -4.83793,-0.70629 -10.75,-0.75419 C 37.266573,203.26718 23.409483,198.34756 12.991226,188.41022 2.5253674,178.42748 0.02373775,170.53527 0.02373775,147.5 c 0,-17.56558 0.85266556,-22.36482 5.88352125,-33.11551 5.626182,-12.02288 13.097673,-19.071893 25.880694,-24.417274 7.982952,-3.338172 21.667272,-6.320762 25.075451,-5.465364 l 2.427594,0.609288 -0.706473,21.26355 c -0.812119,24.44333 -0.547766,25.7218 5.814182,28.1186 11.82345,4.45438 39.182693,6.58249 61.101293,4.7527 6.05,-0.50506 11.10546,-0.84906 11.23435,-0.76446 0.59543,0.39086 -35.30092,32.26482 -41.087768,36.48365 -3.590809,2.61784 -9.501524,6.02315 -13.134922,7.56736 -5.424952,2.30564 -6.553028,3.17957 -6.30892,4.88756 0.474728,3.32163 4.700347,3.0759 11.932794,-0.69391 8.951,-4.66558 15.701006,-9.83131 29.293566,-22.41815 34.29337,-31.75601 50.3018,-43.11409 77.5709,-55.03705 38.0744,-16.647393 68.65924,-18.670115 83.98229,-5.55415 2.37798,2.03546 4.10838,3.04436 3.84533,2.242 C 281.94829,103.27671 272.57238,97.033882 266,94.75439 c -5.38978,-1.869334 -8.54963,-2.245813 -18.5,-2.204174 -6.6,0.02762 -14.7,0.625409 -18,1.328423 -23.89405,5.090255 -49.79558,15.868501 -71.5,29.752851 l -9.5,6.07717 -25.5,-2.82233 c -39.717644,-4.39594 -59.427232,-6.95007 -60.311922,-7.81572 -0.446557,-0.43695 1.025296,-11.54409 3.270784,-24.682532 8.655658,-50.6446 15.782237,-70.652562 26.977109,-75.738582 3.719537,-1.689849 6.599383,-2.077474 15.564029,-2.094907 6.05,-0.01176 13.68489,0.353188 16.96641,0.811006 5.75465,0.802852 5.87888,0.881706 3.5,2.221697 -5.4141,3.0497 -16.0688,5.670522 -20.5538,5.055784 C 104.93235,24.166054 104,24.347133 104,25.500078 c 0,0.804 1.16075,1.753147 2.57944,2.109215 4.94925,1.242184 13.02205,-0.559588 22.63572,-5.05208 12.89351,-6.025171 19.81802,-7.226263 32.67628,-5.667865 16.82175,2.038764 35.48872,7.015666 44.2989,11.810767 3.84288,2.091557 5.34681,3.793525 8.27343,9.362896 7.2178,13.735489 11.68266,29.13283 13.12597,45.265686 0.65779,7.352615 0.82839,7.790362 2.80532,7.198335 1.15772,-0.346699 7.72994,-0.887226 14.60494,-1.201172 21.1463,-0.965642 36.3696,3.327414 46.97452,13.24708 10.81503,10.11619 9.06506,19.42357 -5.54154,29.47317 -8.21744,5.65375 -25.89925,12.41892 -37.64482,14.40314 -3.34662,0.56536 -3.77285,0.99229 -4.33178,4.33891 -1.81847,10.88815 -8.11343,26.49267 -14.33545,35.53608 C 226.15642,192.08646 218.24542,200 216.44957,200 c -0.7659,0 -3.86584,-1.09381 -6.88875,-2.43068 l -5.4962,-2.43068 -0.67385,3.59192 c -0.99855,5.32274 0.28338,22.99679 2.10586,29.03353 0.87407,2.89526 2.95039,6.81438 4.61404,8.70918 l 3.02482,3.44508 -24.81774,16.31865 c -33.18552,21.82079 -31.92812,21.09093 -35.20573,20.4354 -2.60954,-0.5219 -2.98685,-0.13244 -6.09384,6.29001 C 143.00092,291.2665 143.88046,291 120.49163,291 c -17.05224,0 -17.26557,-0.0269 -17.86134,-2.25 z M 140.25,277.57398 c 2.0625,-2.97128 3.75,-5.87189 3.75,-6.44581 0,-0.57391 3.2625,-2.01364 7.25,-3.19939 12.68317,-3.77156 26.65176,-12.13133 47.53578,-28.44868 1.05395,-0.82348 0.87814,-1.97896 -0.91292,-6 -2.68049,-6.01784 -3.61133,-21.59416 -2.02963,-33.96309 1.05523,-8.25187 0.57316,-9.8487 -2.79584,-9.26119 -2.49308,0.43476 -7.95318,8.61755 -9.71581,14.56062 -1.84116,6.20784 -2.29561,18.81442 -1.05203,29.18356 0.48345,4.03102 0.42926,5.97379 -0.14266,5.11465 -1.97786,-2.97111 -7.59365,0.42706 -12.57588,7.60976 l -2.23659,3.22442 -4.35751,-3.20455 c -3.08475,-2.26855 -4.16122,-2.69303 -3.68548,-1.45327 0.38788,1.01081 -0.24621,3.64129 -1.49967,6.22129 l -2.17169,4.47 -2.31378,-2.17368 -2.31378,-2.17368 -1.64295,4.18253 C 148.43595,258.11786 147.39332,260 147.02262,260 c -0.37069,0 -1.72721,-1.1211 -3.01447,-2.49133 l -2.34048,-2.49133 -1.94922,3.24133 c -1.07207,1.78273 -2.08325,3.38979 -2.24707,3.57123 -0.16382,0.18145 -1.54007,-0.48403 -3.05834,-1.47883 -1.74547,-1.14368 -2.89371,-1.40905 -3.12282,-0.72172 -0.19929,0.59787 -0.96356,1.90924 -1.69838,2.91417 -1.26567,1.73091 -1.54905,1.65843 -5.38054,-1.37616 l -4.04449,-3.20331 -0.701,3.26798 c -1.05471,4.91689 -1.37655,5.07343 -4.90216,2.38431 l -3.25643,-2.4838 -1.63743,3.43373 -1.63743,3.43373 4.23382,0.0706 c 2.3286,0.0388 7.83382,0.0346 12.23382,-0.009 5.16985,-0.0517 7.46935,0.23949 6.5,0.82315 C 129.85724,269.57247 110.26308,274 108.36076,274 108.16234,274 108,276.025 108,278.5 l 0,4.5 14.25,-0.0118 14.25,-0.0118 3.75,-5.40233 z M 105,268.00765 c 0,-0.36246 -1.125,-1.7159 -2.5,-3.00765 -2.747551,-2.58119 -3.051647,-2.30484 -1.41542,1.28628 0.96475,2.11741 3.91542,3.41463 3.91542,1.72137 z m 4,-8.59179 c 0,-2.45682 -2.76378,-2.22973 -3.92671,0.32264 -0.92803,2.03679 -0.90159,2.75334 0.12554,3.4022 1.36829,0.86439 3.80117,-1.51964 3.80117,-3.72484 z m 7.9438,-1.31085 c 0.74572,-1.39339 0.64114,-2.20459 -0.39507,-3.06457 -1.11726,-0.92724 -1.64048,-0.73752 -2.52524,0.91566 -1.13095,2.11321 -0.65335,4.0439 1.00034,4.0439 0.49819,0 1.36218,-0.85275 1.91997,-1.89499 z m -13.50367,-6.05643 C 101.78779,241.84986 101.51003,241.48997 98,245 c -2.636937,2.63694 -2.525753,4.24673 0.669939,9.69977 2.468041,4.21139 2.771091,4.41758 4.007531,2.72664 0.83908,-1.14751 1.12332,-3.15177 0.76266,-5.37783 z m 25.43389,5.60321 c 1.6041,-1.93282 -1.9985,-5.06444 -4.80236,-4.17454 -2.66727,0.84656 -2.6225,2.02352 0.15085,3.96605 2.71458,1.90136 3.22747,1.92435 4.65151,0.20849 z m 8.71664,-6.4897 c -1.4648,-1.4648 -1.78659,-1.40783 -3.84463,0.68057 l -2.24603,2.27918 2.43891,2.00234 2.43891,2.00234 1.40572,-2.68291 c 1.23276,-2.3528 1.20902,-2.87962 -0.19288,-4.28152 z m -26.09857,3.85071 c 0.33556,-0.54296 0.30146,-3.71539 -0.0758,-7.04984 l -0.68591,-6.06265 -3.1152,0.66666 c -1.71335,0.36666 -3.20471,0.74112 -3.31413,0.83211 -0.10941,0.091 0.29247,2.17594 0.89308,4.63319 1.50455,6.15558 4.65185,9.64398 6.29795,6.98053 z m 35.27495,-7.76078 c -2.86231,-3.04678 -3.49301,-2.83833 -3.01961,0.99798 0.73613,5.96536 1.18876,6.48605 3.25597,3.7455 1.84922,-2.45158 1.84544,-2.5275 -0.23636,-4.74348 z m -25.81885,4.31041 C 121.99905,250.29621 121.53452,241 120.42038,241 c -0.19389,0 -1.89781,0.73689 -3.78649,1.63754 -3.26057,1.55486 -3.38119,1.79469 -2.38883,4.75 1.88583,5.61614 4.27304,7.10296 6.70313,4.17489 z m 9.47002,-0.16942 C 131.58703,250.94449 132,249.39344 132,245.45203 c 0,-2.9337 -0.34196,-5.54534 -0.75991,-5.80364 -0.41794,-0.25831 -2.267,0.16404 -4.10902,0.93854 -2.96553,1.24692 -3.2716,1.72344 -2.67237,4.16064 0.65432,2.66121 3.17551,7.25243 3.98257,7.25243 0.21733,0 1.10696,-0.27314 1.97694,-0.60699 z M 154.65405,246.75 c -0.30516,-2.3375 -0.86642,-6.41012 -1.24726,-9.05027 l -0.69242,-4.80026 -2.85718,2.73735 C 148.28573,237.14237 147,239.0172 147,239.80311 147,241.23161 153.70858,251 154.68961,251 c 0.2856,0 0.2696,-1.9125 -0.0356,-4.25 z M 141,243 c 0,-3.3 -0.43247,-6 -0.96104,-6 C 138.64096,237 135,241.14484 135,242.73631 135,243.89495 139.60164,249 140.64602,249 140.84071,249 141,246.3 141,243 z m 24.51553,-4.59851 c -0.92018,-2.40944 -2.01874,-4.59446 -2.44126,-4.85559 -0.42252,-0.26113 -1.97727,0.78719 -3.45499,2.3296 l -2.68676,2.80437 4.78374,3.73307 c 5.57876,4.35347 6.58722,3.28869 3.79927,-4.01145 z m -65.31792,-3.15748 0.3067,-4.74401 2.45961,4.77573 c 1.58874,3.0848 2.94469,4.58958 3.82963,4.25 0.75351,-0.28915 1.78322,-0.52573 2.28824,-0.52573 0.50501,0 0.95,-2.1375 0.98885,-4.75 l 0.0706,-4.75 1.98113,4.46843 c 2.52228,5.68901 2.28035,5.5216 5.84554,4.04485 2.4213,-1.00294 3.05141,-1.88614 3.12811,-4.3846 l 0.096,-3.12868 1.65395,3.7449 c 1.85916,4.20953 2.66488,4.47167 5.95748,1.93819 1.57793,-1.21414 2.54285,-3.33333 3.0633,-6.72777 l 0.75977,-4.95532 0.78186,3.32151 c 1.11881,4.75291 1.93759,3.17314 3.18676,-6.1486 L 137.69045,213.5 133.01847,208 c -4.08731,-4.8117 -8.88038,-11.43959 -11.50974,-15.91573 -0.45739,-0.77865 2.06467,0.65102 5.60459,3.17705 7.27027,5.18796 21.60424,12.40747 26.43297,13.31334 2.89426,0.54297 3.68552,0.0937 8.08106,-4.58854 6.03189,-6.42529 16.36845,-20.08446 16.37086,-21.63315 9.9e-4,-0.63087 -3.47186,-3.19411 -7.71743,-5.69608 l -7.71921,-4.54904 -3.03079,1.81925 c -1.66693,1.0006 -7.18114,3.94062 -12.2538,6.53339 l -9.22302,4.71412 -2.8658,-2.04062 c -1.57618,-1.12235 -3.40562,-2.69109 -4.06541,-3.48609 -1.02185,-1.23125 -3.1205,-0.53884 -14.16119,4.67219 C 109.8327,187.68479 104,190.81056 104,191.26624 c 0,0.45568 3.36031,5.98219 7.46735,12.28113 4.10704,6.29895 7.03742,11.45263 6.51196,11.45263 -0.80761,0 -18.208385,-5.3832 -21.567853,-6.67235 -0.603646,-0.23164 -2.63067,2.06567 -4.504498,5.10515 -1.873827,3.03947 -3.744459,5.53551 -4.156959,5.54675 -0.4125,0.0113 -0.785493,-4.14205 -0.828872,-9.22955 l -0.07887,-9.25 -2.395208,5 c -1.317364,2.75 -2.672862,6.84512 -3.012217,9.10026 -0.568548,3.77823 -0.124753,4.8778 5.650481,14 8.241885,13.01837 8.730811,13.56852 10.986009,12.36157 1.284291,-0.68733 1.909814,-2.36943 2.126287,-5.71782 z m 51.59156,-10.35673 C 150.07103,222.74928 148.30642,221 147.86782,221 c -1.47794,0 -2.64064,3.46615 -3.06353,9.13276 l -0.42036,5.63276 5.26457,-3.49548 5.26457,-3.49548 -3.1239,-3.88728 z m 18.13375,0.0359 4.16856,-2.34285 -0.64358,-5.15098 c -0.35396,-2.83303 -0.9376,-6.58863 -1.29698,-8.34578 l -0.65341,-3.19482 -5.74875,7.7542 C 162.58694,217.90774 160,222.39597 160,223.61678 c 0,1.2208 -0.2578,2.89146 -0.57289,3.71256 -0.78826,2.05419 4.86604,0.75794 10.49581,-2.40618 z m 48.31695,-45.0512 c 3.73338,-5.08881 3.73686,-5.10287 2,-8.09866 -3.37685,-5.82453 -15.02039,-13.76275 -26.12644,-17.81221 l -6.13344,-2.23637 -11.65277,4.8254 c -12.3988,5.13433 -12.50344,5.35969 -3.32722,7.16573 l 4.5,0.88568 -5.5,2.85505 c -3.6433,1.89123 -4.99363,3.0445 -4,3.41627 2.97391,1.11269 44.52378,13.89016 45.5,13.99222 0.55,0.0575 2.68294,-2.1894 4.73987,-4.99311 z m -188.447712,-15.429 c 4.239313,-0.85637 18.447426,-5.13137 31.573583,-9.5 13.126158,-4.36863 24.826158,-7.98976 26,-8.04695 C 88.539584,146.83881 85,145.99079 79.5,145.01151 74,144.03224 66.502674,142.12447 62.839275,140.77203 c -5.620054,-2.0748 -6.495578,-2.19455 -5.603711,-0.76644 3.320564,5.31707 -4.185525,11.53098 -21.735564,17.99379 -6.05,2.22791 -12.8,4.91155 -15,5.96365 -3.814813,1.82434 -3.870732,1.91577 -1.207842,1.97494 1.535687,0.0341 6.260687,-0.63864 10.5,-1.49501 z M 216,61.904292 c 0,-6.823809 -7.51324,-11.554456 -16.70974,-10.521147 -13.67806,1.53685 -27.96499,-4.265085 -40.46364,-16.432327 -4.78859,-4.66161 -7.62443,-6.836587 -7.24383,-5.55572 1.91921,6.45883 10.21755,15.688546 19.75742,21.974911 13.16359,8.674242 24.12717,12.245939 38.40979,12.513088 5.71566,0.106909 6.25,-0.06227 6.25,-1.978805 z"
       id="path3076"
       inkscape:connector-curvature="0" />
    <path
       style="fill:#6e6e6e;fill-opacity:1"
       d="m 102.65076,288.82828 c -0.3429,-1.28056 -0.6296,-4.47006 -0.63711,-7.08778 -0.0127,-4.4153 -0.3011,-4.9577 -3.98844,-7.5 C 94.16976,271.58228 93.871467,270.94456 88.090058,253 84.811859,242.825 81.828035,233.2677 81.459338,231.76155 80.621359,228.33835 71.896708,220.40543 66.25,217.9324 63.9125,216.90867 62,215.81563 62,215.50342 c 0,-0.31221 0.71417,-2.2407 1.587045,-4.28554 3.789735,-8.878 4.678981,-7.98219 -7.906959,-7.96532 C 27.447017,203.2904 8.1442569,191.08651 1.6115236,169.0685 -0.5781186,161.6885 -0.63870957,134.93286 1.5150324,126.4601 3.9605112,116.83965 9.7541281,106.07762 15.49036,100.5 24.20246,92.028798 41.372838,85 53.35471,85 l 5.861074,0 -0.698444,22.25 c -0.681007,21.69448 -0.646197,22.30519 1.394244,24.46048 5.55014,5.86254 26.470828,8.84248 55.980236,7.97383 l 20.39183,-0.60027 -7.39183,6.80337 C 101.45352,171.14136 91.906816,178.6277 82,182.6591 c -4.425089,1.8007 -5.5,2.6879 -5.5,4.53951 0,3.42628 3.549617,3.4369 10.791244,0.0323 8.701102,-4.09079 17.957306,-11.35444 36.861336,-28.92631 8.99108,-8.3575 19.04742,-17.30953 22.34742,-19.8934 36.43187,-28.5259 87.3242,-47.53192 113.89418,-42.534421 7.24682,1.363041 16.18308,5.353631 19.85582,8.866851 1.5125,1.4468 2.75,2.14298 2.75,1.54705 0,-1.54943 -6.36502,-6.926089 -10.99632,-9.288804 -5.82187,-2.970094 -15.4972,-4.970361 -24.12269,-4.987095 -24.12418,-0.0468 -61.53282,13.129739 -90.6111,31.916179 L 148.64994,129.5 119.57497,126.31541 C 81.796838,122.17756 64.568144,119.96917 63.129782,119.08021 61.31926,117.96125 70.288096,67.139985 75.547431,48.716503 80.634098,30.897877 86.491029,21.1236 93.740648,18.354946 98.793607,16.425203 110.99288,16.01608 123.48562,17.3574 l 7.98563,0.857399 -3.72317,1.910102 c -5.88094,3.0171 -15.3922,5.11102 -19.81883,4.363146 C 104.74452,23.94999 104,24.121472 104,25.39305 c 0,4.333357 12.74186,3.19525 24.13157,-2.15544 4.60264,-2.162238 10.16843,-4.55183 12.36843,-5.310206 11.74136,-4.047437 49.80546,2.241104 65.83156,10.875983 4.43042,2.387117 5.23734,3.437358 9.71922,12.64993 5.73735,11.793191 9.44501,24.905905 11.12238,39.335992 l 1.20559,10.371443 2.56063,-0.56715 C 232.34772,90.281669 238.675,89.739705 245,89.389236 c 19.29193,-1.068966 36.25197,3.422968 45.92727,12.164024 4.80866,4.34433 8.0751,10.07623 8.06761,14.1569 -0.0203,11.06338 -21.94944,24.81049 -48.24355,30.24331 -4.62612,0.95583 -5.83095,1.61335 -6.17002,3.36715 -4.01935,20.79 -14.41993,40.92283 -25.04668,48.48387 l -3.48399,2.4789 -6.06163,-2.62886 c -5.22669,-2.26675 -6.14348,-2.41556 -6.65584,-1.08038 -0.32681,0.85165 -0.37092,7.25838 -0.098,14.23716 0.54842,14.02465 2.57283,21.29128 7.30867,26.23443 l 2.61631,2.73084 -16.33006,10.7473 c -39.93122,26.2799 -40.60607,26.6835 -43.55494,26.04827 -2.59075,-0.55808 -3.0239,-0.13967 -6.51939,6.29735 -2.61313,4.81216 -4.4257,7.02275 -6,7.31752 -1.24066,0.23231 -10.18154,0.54549 -19.86864,0.69596 l -17.6129,0.27358 -0.62344,-2.32828 z m 37.31198,-10.77341 c 2.22049,-3.26982 4.03726,-6.3895 4.03726,-6.93261 0,-1.02434 0.52821,-1.23382 7.96815,-3.16002 9.12616,-2.36277 20.97061,-9.25248 39.82869,-23.16765 l 9.29684,-6.86004 -1.98856,-2.52804 C 195.83673,231.25142 194.6611,222.89717 195.38915,209 c 0.36017,-6.875 0.91395,-13.69321 1.23062,-15.15158 0.45114,-2.07769 0.13526,-2.79139 -1.45946,-3.29754 -1.11937,-0.35527 -2.98528,-0.0621 -4.14647,0.65158 -2.92035,1.79479 -7.78729,12.08228 -9.12952,19.29754 -1.05433,5.66758 -0.64515,21.33601 0.68128,26.0877 0.5073,1.81732 0.21702,2.03642 -2.24141,1.6918 -3.00385,-0.42108 -6.74404,2.40587 -10.92057,8.25411 l -2.09638,2.93548 -4.24463,-2.80896 c -3.53014,-2.33613 -4.15423,-2.50186 -3.70762,-0.98454 0.29536,1.00342 -0.47245,3.76066 -1.70624,6.12719 -2.2371,4.29098 -2.24834,4.29715 -4.10099,2.25 C 150.98388,251.21972 150.51078,251.42229 149,256 c -0.72607,2.2 -1.56097,4 -1.85534,4 -0.29437,0 -1.77479,-1.18758 -3.28981,-2.63906 l -2.75458,-2.63906 -1.73535,3.63906 c -1.9237,4.03404 -2.54111,4.33661 -4.36492,2.13906 -1.77854,-2.14301 -3.74558,-1.85375 -5.10027,0.75 -0.64385,1.2375 -1.31393,2.41675 -1.48907,2.62055 -0.17514,0.20381 -2.11649,-1.05354 -4.31413,-2.79409 l -3.99569,-3.16465 -1.10891,4.11817 -1.10891,4.11817 -3.2879,-2.5078 -3.2879,-2.50781 -1.65361,3.46766 C 108.74412,266.50741 108,268.31095 108,268.60807 c 0,0.29711 2.1375,0.46686 4.75,0.37721 2.6125,-0.0897 7.675,-0.0778 11.25,0.0263 7.29991,0.21261 7.96695,-0.0619 -8.75,3.60073 l -7.25,1.58844 0,4.36789 0,4.36788 11.75,0.3167 c 6.4625,0.17419 12.74573,0.41347 13.96274,0.53174 1.69008,0.16424 3.16636,-1.18924 6.25,-5.7301 z m -36.50237,-12.09623 c -3.20544,-3.34576 -3.919267,-3.29583 -2.59712,0.18167 0.55737,1.46601 1.8034,2.4843 3.16545,2.5869 2.17885,0.16413 2.1618,0.0811 -0.56833,-2.76857 z m 5.34677,-7.69102 c -1.58594,-1.91094 -2.72521,-1.54155 -4.02172,1.30399 -0.94874,2.08225 -0.89708,2.7433 0.27144,3.4738 1.98676,1.24203 5.27237,-2.94378 3.75028,-4.77779 z m 8.13666,-0.16261 c 0.74572,-1.39339 0.64114,-2.20459 -0.39507,-3.06457 -1.11726,-0.92724 -1.64048,-0.73752 -2.52524,0.91566 -1.13095,2.11321 -0.65335,4.0439 1.00034,4.0439 0.49819,0 1.36218,-0.85275 1.91997,-1.89499 z m 11.04092,-3.53484 c -1.64258,-1.66842 -2.26491,-1.76354 -4.59433,-0.70218 l -2.69439,1.22764 3.38755,2.32119 c 3.07308,2.10571 3.49957,2.17089 4.59433,0.70218 0.97761,-1.31156 0.84599,-1.98547 -0.69316,-3.54883 z M 103.56209,252.625 c -0.30915,-1.58125 -0.56898,-3.83125 -0.5774,-5 -0.0263,-3.64654 -1.42692,-4.99388 -3.845709,-3.69938 -3.487731,1.86658 -3.689617,5.45908 -0.602783,10.72636 2.595962,4.42967 2.822162,4.57984 4.166482,2.76599 0.85823,-1.15796 1.19877,-3.05721 0.85941,-4.79297 z m 35.40611,0.74744 c 0.0175,-0.62015 -0.66774,-1.70811 -1.52273,-2.41769 -1.30106,-1.07979 -1.91248,-0.92678 -3.75,0.93847 l -2.19547,2.22862 2.37898,1.95381 c 2.26266,1.85828 2.44447,1.86753 3.7182,0.18909 0.73657,-0.97061 1.35352,-2.27214 1.37102,-2.8923 z m -27.43522,1.5742 c 0.35805,-0.57934 0.33748,-3.75475 -0.0457,-7.05645 l -0.69674,-6.00309 -3.14526,0.67326 c -1.72989,0.3703 -3.28734,0.80028 -3.46098,0.95551 -0.70425,0.62956 2.10958,9.10491 3.56373,10.73413 1.78909,2.00446 2.85539,2.20072 3.78497,0.69664 z m 35.23406,-7.69462 c -3.07394,-3.27205 -4.09421,-2.80953 -3.28755,1.49036 1.00139,5.33783 1.57431,5.83776 3.60495,3.14567 1.74465,-2.31292 1.73518,-2.45115 -0.3174,-4.63603 z m -25.90634,4.85524 c 1.01927,-0.6458 1.18391,-2.14745 0.65616,-5.98469 -0.77051,-5.60226 -1.18234,-5.86404 -5.61741,-3.57058 -3.21453,1.6623 -3.27354,3.43889 -0.27227,8.19801 1.50161,2.38112 3.00299,2.77049 5.23352,1.35726 z m 10.93702,-6.8673 C 131.96146,241.80798 131.83451,239 131.5156,239 c -0.31891,0 -2.17775,0.66765 -4.13076,1.48367 -3.30868,1.38246 -3.50356,1.7065 -2.85659,4.75 0.8452,3.97601 3.29989,6.94479 5.41024,6.54331 1.17675,-0.22387 1.63487,-1.83459 1.85923,-6.53702 z m 22.248,-3.81875 -1.27778,-8.58862 -3.3757,3.27185 c -3.27826,3.17742 -3.32882,3.3458 -1.75163,5.83371 3.29894,5.20386 6.57723,9.17734 7.12212,8.63245 0.30842,-0.30842 -0.0142,-4.42564 -0.71701,-9.14939 z M 141.20841,241.75 c 0.34155,-5.30179 -0.86694,-6.09147 -4.20841,-2.75 -2.69365,2.69365 -2.51844,4.57645 0.72546,7.79545 2.99522,2.97224 2.96347,3.01824 3.48295,-5.04545 z m 24.77562,-2.30702 c -1.7566,-6.27398 -3.07438,-7.00189 -6.39716,-3.53365 l -2.75228,2.87276 4.81116,3.67359 c 5.382,4.10947 6.17767,3.55692 4.33828,-3.0127 z M 99.225656,240.25 c 0.844704,-0.96262 1.436704,-3.21227 1.315754,-5 -0.29119,-4.30398 1.01106,-4.13606 2.4817,0.32001 1.35955,4.11949 2.95443,5.04756 5.93393,3.45298 1.74547,-0.93414 2.0202,-1.77436 1.57832,-4.827 l -0.535,-3.69599 2.24982,4.62866 2.24982,4.62867 3.25,-1.56009 c 2.57378,-1.23549 3.27022,-2.19856 3.34718,-4.62867 l 0.0972,-3.06857 1.53852,3.75 c 1.72951,4.21553 2.16777,4.36986 6.31678,2.22432 2.66944,-1.38042 2.96032,-2.02308 3.05519,-6.75 l 0.10486,-5.22432 1.28153,4 c 1.52834,4.77037 1.94178,3.88832 3.38406,-7.21973 l 1.06726,-8.21972 -3.08371,-3.28028 c -3.31225,-3.52338 -11.47132,-14.18765 -12.90662,-16.86953 -0.48081,-0.89841 3.04574,0.97386 7.83678,4.16059 8.44719,5.61859 22.14475,11.93133 25.87758,11.9261 2.02362,-0.003 14.18992,-13.56814 19.77568,-22.04968 l 3.48941,-5.2984 -7.989,-4.80241 -7.989,-4.8024 -12.50115,6.57827 -12.50115,6.57827 -4.26761,-3.49698 -4.2676,-3.49698 -13.21905,6.34626 -13.21905,6.34625 7.62789,11.59993 c 4.19534,6.37995 7.44751,11.7803 7.22705,12.00077 -0.22047,0.22046 -5.29377,-1.15192 -11.274,-3.04974 C 100.57877,209.55276 95.578448,208 95.447173,208 c -0.131275,0 -1.748092,2.35585 -3.592927,5.23521 L 88.5,218.47043 88.211067,209.73521 C 88.052154,204.93085 87.545069,201 87.084211,201 c -1.208996,0 -4.899827,8.99473 -5.671817,13.82249 -0.612099,3.82786 -0.219431,4.79954 5.615769,13.89657 C 93.648543,239.04018 95.870887,242 97,242 c 0.379514,0 1.381059,-0.7875 2.225656,-1.75 z m 51.504354,-8.60711 4.19209,-2.85711 -3.14588,-3.91461 c -1.73023,-2.15304 -3.6252,-3.75855 -4.21104,-3.56779 -1.51724,0.49403 -3.44235,6.5273 -3.50874,10.99631 -0.0421,2.83223 0.26666,3.59608 1.21252,3 0.69793,-0.43983 3.1554,-2.08539 5.46105,-3.6568 z M 169.25,225.3401 c 5.33289,-2.66509 5.39399,-2.89991 3.45332,-13.27031 l -1.20332,-6.43021 -5.64908,7.60314 c -3.74796,5.04441 -5.88334,8.98968 -6.34515,11.72315 l -0.69607,4.12 2.84515,-0.68599 c 1.56483,-0.3773 4.98265,-1.7542 7.59515,-3.05978 z m 49.0741,-45.49358 c 3.57594,-5.10819 3.59257,-5.17936 1.89177,-8.09848 -1.87928,-3.22547 -8.60432,-9.10888 -14.43381,-12.62745 C 201.49534,156.5332 190.29792,152 188.19356,152 c -2.06603,0 -23.39454,9.13235 -22.77513,9.75176 0.28654,0.28654 2.8892,1.05435 5.7837,1.70625 l 5.26272,1.18526 -4.7776,2.79986 c -2.62768,1.53992 -4.57699,3.00046 -4.33181,3.24564 0.51263,0.51263 44.57729,14.04637 46.25279,14.20578 0.60952,0.058 2.73167,-2.21362 4.71587,-5.04803 z M 30.792158,164.41377 C 35.031471,163.54135 49.075,159.29861 62,154.98547 c 12.925,-4.31314 24.4,-8.01512 25.5,-8.22663 1.1,-0.21151 -1.855628,-0.95363 -6.568061,-1.64916 -7.339655,-1.0833 -15.481206,-3.37446 -23.431939,-6.59413 -1.646221,-0.66664 -1.778888,-0.57161 -0.75,0.53727 5.144396,5.54434 -3.702469,12.67251 -25.537865,20.5766 -5.161606,1.86843 -10.583402,4.04815 -12.048436,4.84382 L 16.5,165.91992 l 3.292158,0.04 c 1.810687,0.022 6.760687,-0.67376 11,-1.54619 z M 216,61.95034 c 0,-3.619365 -2.8099,-7.632248 -6.6054,-9.433332 -2.77447,-1.316571 -5.95794,-1.716271 -12.79405,-1.606352 -15.46619,0.248682 -26.23371,-4.489761 -38.85055,-17.096887 -7.05488,-7.049449 -8.03142,-7.245885 -4.83057,-0.971696 3.01212,5.904246 10.55152,13.652622 18.2905,18.797486 12.04692,8.008777 24.79676,12.124965 38.04007,12.280941 6.16371,0.07259 6.75,-0.09853 6.75,-1.97016 z"
       id="path3074"
       inkscape:connector-curvature="0" />
    <path
       style="fill:#515151;fill-opacity:1"
       d="m 102.625,287.875 c -0.34375,-1.71875 -0.625,-5.06496 -0.625,-7.43602 0,-3.98389 -0.30173,-4.48059 -3.976387,-6.54587 -3.128554,-1.75834 -4.28786,-3.2112 -5.437211,-6.81398 C 91.782949,264.56061 88.82854,255.075 86.021049,246 l -5.104528,-16.5 -6.144201,-5.71138 c -3.37931,-3.14127 -7.405367,-5.98839 -8.946792,-6.32694 -3.81716,-0.83839 -4.153893,-1.75319 -2.270295,-6.16766 3.872448,-9.07563 4.703886,-8.15575 -7.356625,-8.13916 C 37.974169,203.17992 24.04811,198.46638 13.28577,188.63021 3.1832099,179.39704 0,169.54243 0,147.5 0,130.81022 1.2020268,124.56712 6.583709,113.30546 11.277511,103.48325 17.554604,97.296846 28.033311,92.165751 37.92133,87.323897 46.276072,85 53.795211,85 l 5.375014,0 -0.720759,22.36435 c -0.841533,26.11184 -1.202243,25.08731 10.056965,28.56492 10.941775,3.37957 23.10715,4.36847 46.493569,3.77939 l 21.5,-0.54157 -2.5,2.00915 c -1.375,1.10504 -4.75,4.11482 -7.5,6.68842 C 103.18925,169.6801 91.806862,178.58942 82.310851,182.45282 77.557239,184.3868 76.5,185.24295 76.5,187.15847 c 0,3.69331 4.231583,3.50544 12.274597,-0.54496 8.475328,-4.26811 17.912133,-11.70904 33.725403,-26.59253 29.29174,-27.56945 50.60264,-41.9894 78.23619,-52.93823 36.67989,-14.533125 61.86384,-15.667609 77.7982,-3.50464 5.3936,4.11703 5.94936,2.93183 0.76124,-1.6234 C 264.993,89.396831 240.85136,88.779524 206.561,100.09486 c -14.18578,4.68111 -36.43572,15.36191 -48.90314,23.47534 l -8.84214,5.75419 -34.15786,-3.70259 C 79.839104,121.84758 63.37276,119.70609 62.506015,118.83935 61.905966,118.2393 70.163754,70.62174 72.883292,59 75.277537,48.768378 80.237738,34.456967 83.186359,29.273096 89.943059,17.394372 97.345644,14.908098 119.3603,17.123516 l 12.1397,1.221664 -5,2.194397 c -6.74149,2.958704 -14.44371,4.506095 -18.86114,3.789244 C 104.71457,23.854274 104,24.054825 104,25.350106 c 0,4.606948 12.94602,3.241545 25.79119,-2.720169 12.43168,-5.76981 19.36532,-7.039532 30.72959,-5.627355 25.52716,3.172123 45.79684,9.614074 50.7711,16.135674 6.49344,8.51333 13.02061,27.746769 15.44342,45.506688 l 1.69243,12.405977 6.03613,-0.77546 C 244.59394,88.974053 262.86605,89.573885 270,91.44203 c 18.16271,4.756212 31.11148,17.00902 28.59041,27.05377 -2.08747,8.31713 -19.95556,19.70813 -39.09041,24.92033 -5.5,1.49816 -11.12011,3.03904 -12.48914,3.42416 -2.09337,0.5889 -2.60688,1.51829 -3.22958,5.84522 -1.78962,12.43532 -10.90411,31.25517 -19.68154,40.63895 -6.52281,6.97341 -7.03509,7.1243 -14.24335,4.19531 C 206.44572,196.1339 203.50777,195 203.32759,195 203.14742,195 203,199.86735 203,205.81634 c 0,16.83775 2.07804,25.31252 7.67544,31.30234 l 2.44712,2.61868 -13.57124,8.88132 c -7.46419,4.88473 -20.32321,13.30316 -28.57561,18.70763 -12.5507,8.21941 -15.45558,9.7272 -17.76355,9.22029 -2.57457,-0.56547 -3.00787,-0.14561 -6.47563,6.2747 l -3.71643,6.88072 -8.26005,0.64299 c -4.54303,0.35365 -13.4913,0.6457 -19.88505,0.649 L 103.25,291 102.625,287.875 z M 140.76982,277 c 4.31035,-6.37345 4.56468,-6.56 13.06306,-9.58155 12.02073,-4.27391 26.74089,-13.27664 42.90364,-26.2395 l 4.23651,-3.39778 -1.90046,-2.41604 c -2.97579,-3.7831 -4.4486,-15.19396 -3.59617,-27.86202 1.2337,-18.33414 1.3634,-16.9638 -1.6385,-17.31105 -2.1743,-0.25151 -3.21284,0.49254 -5.66774,4.06062 C 183.10508,201.61452 181.5,208.05088 181.5,221 c 0,6.325 0.30985,12.88051 0.68856,14.56779 0.65181,2.90405 0.5422,3.04631 -2.0536,2.66533 -2.91377,-0.42766 -6.56915,2.39036 -10.73134,8.27303 l -2.09638,2.96294 -4.22712,-2.79737 c -3.63207,-2.40359 -4.19327,-2.54218 -3.9866,-0.98455 0.13229,0.99706 -0.56795,3.74898 -1.5561,6.11538 l -1.79664,4.30256 -2.18484,-2.05256 C 152.35428,252.92365 151.13463,252 150.84561,252 c -0.28902,0 -1.11954,1.8 -1.84561,4 -0.72607,2.2 -1.56097,4 -1.85534,4 -0.29437,0 -1.73721,-1.15158 -3.20631,-2.55907 l -2.6711,-2.55907 -2.17809,3.69161 -2.1781,3.6916 -2.45159,-2.30315 c -2.71516,-2.55076 -2.62411,-2.57645 -4.61244,1.30138 l -1.41686,2.7633 -4.16347,-3.06185 -4.16347,-3.06185 -1.11984,4.15877 -1.11984,4.15877 -2.18177,-1.96145 c -3.81343,-3.42834 -4.52246,-3.46776 -6.13919,-0.34135 -0.84843,1.64067 -1.54259,3.44016 -1.54259,3.99887 0,0.60717 4.3246,1.13001 10.75,1.29966 l 10.75,0.28383 -9,1.80769 c -13.28193,2.66775 -12.5,2.21574 -12.5,7.22587 l 0,4.39878 10.75,0.34376 c 18.76141,0.59996 17.03719,1.0914 22.01982,-6.2761 z m -34.84202,-8.75 c -0.0397,-0.4125 -1.62326,-2.03929 -3.51901,-3.6151 l -3.446807,-2.86509 1.049037,2.75917 c 0.57697,1.51754 1.28708,3.14434 1.57802,3.6151 0.65054,1.05258 4.43879,1.14507 4.33876,0.10592 z m 2.42015,-6.65829 c 1.43421,-2.18888 1.43483,-2.5271 0.007,-3.71226 -1.31839,-1.09416 -1.7951,-0.99772 -2.96296,0.59943 -1.5126,2.06859 -1.77231,3.80727 -0.72512,4.85445 1.16037,1.16037 2.05812,0.73565 3.68128,-1.74162 z m 8.59585,-3.4867 c 0.74572,-1.39339 0.64114,-2.20459 -0.39507,-3.06457 -1.11726,-0.92724 -1.64048,-0.73752 -2.52524,0.91566 -1.13095,2.11321 -0.65335,4.0439 1.00034,4.0439 0.49819,0 1.36218,-0.85275 1.91997,-1.89499 z m 11.82668,-0.19243 c 0.98381,-1.29651 0.78559,-1.981 -1.08163,-3.73517 -2.12942,-2.00048 -2.44125,-2.03913 -4.54775,-0.56369 l -2.26157,1.58407 3.23862,2.38938 c 1.78125,1.31416 3.28569,2.28216 3.34321,2.15111 0.0575,-0.13106 0.64662,-0.95262 1.30912,-1.8257 z m -25.34339,-7.90986 c -0.76894,-6.45959 -1.21458,-7.13256 -4.205275,-6.35047 -4.175079,1.0918 -3.982126,6.34668 0.487301,13.27112 1.520644,2.35592 1.603264,2.36991 2.968594,0.50271 1.02102,-1.39633 1.2256,-3.42281 0.74938,-7.42336 z m 34.5887,5.46777 c 1.17838,-2.20182 1.13499,-2.74829 -0.33498,-4.21826 -1.58499,-1.58499 -1.82286,-1.55462 -3.87171,0.49422 -2.12666,2.12667 -2.13546,2.23545 -0.34104,4.21826 2.37415,2.6234 2.91042,2.56512 4.54773,-0.49422 z m -26.3712,-0.98668 c 0.31999,-0.8339 0.26742,-4.03246 -0.11683,-7.10791 l -0.69864,-5.59172 -3.09164,0.61832 c -1.70041,0.34009 -3.26654,0.79322 -3.48029,1.00697 -0.74814,0.74814 1.94354,9.10697 3.49082,10.84053 1.91929,2.15035 3.13318,2.22319 3.89658,0.23381 z m 9.9752,-7.86942 c -0.30672,-2.68709 -0.78223,-5.11016 -1.05667,-5.38461 -0.60067,-0.60067 -6.40433,1.70428 -7.09173,2.81651 -0.65569,1.06093 1.30547,6.04967 3.20214,8.14545 1.25425,1.38594 1.89661,1.47754 3.51913,0.50183 1.68795,-1.01504 1.90141,-1.92433 1.42713,-6.07918 z m 24.66729,0.14988 -2.78708,-2.92258 -0.29797,2.38789 c -0.16388,1.31335 0.20858,3.71147 0.82768,5.32916 l 1.12565,2.94126 1.9594,-2.40658 1.9594,-2.40657 -2.78708,-2.92258 z m -14.48936,-1.52431 c 0.32533,-6.81878 -0.0628,-7.18847 -4.91367,-4.68 -2.68729,1.38965 -2.94265,1.90822 -2.33904,4.75 0.82994,3.90737 3.29728,6.86581 5.39348,6.46702 1.17675,-0.22387 1.63487,-1.83459 1.85923,-6.53702 z M 155,248.94263 c 0,-3.54467 -2.26343,-15.94618 -2.89655,-15.87043 -0.3319,0.0397 -1.81079,1.52944 -3.28643,3.31052 l -2.68299,3.23833 3.68299,5.67613 C 153.74858,251.35642 155,252.2366 155,248.94263 z m -13.67962,-11.85507 c -0.8813,-1.16528 -5.35248,2.19216 -5.91753,4.44351 -0.5088,2.02719 -0.0198,3.26153 2.22241,5.60969 l 2.87474,3.01059 0.56615,-6.32567 c 0.31139,-3.47913 0.42579,-6.51128 0.25423,-6.73812 z m 24.73126,2.10423 c -1.59817,-5.93517 -3.1624,-6.7294 -6.46477,-3.28246 l -2.75228,2.87276 4.83271,3.69528 c 5.40528,4.1331 6.21799,3.52407 4.38434,-3.28558 z M 99.25,240.60795 c 1.03973,-0.78926 1.76794,-2.70423 1.7942,-4.71819 l 0.0442,-3.38976 1.9797,3.75 c 2.11681,4.00975 2.19785,4.05305 5.78669,3.09231 2.11402,-0.56592 2.29872,-1.05017 1.80655,-4.73634 L 110.1131,230.5 l 2.19345,4.62866 2.19345,4.62867 3.25,-1.56009 c 2.37825,-1.14163 3.26715,-2.24906 3.31395,-4.12867 0.0622,-2.49728 0.10885,-2.47836 1.68143,0.68143 1.84496,3.70709 2.25378,3.81891 6.30428,1.72432 2.60625,-1.34775 2.96225,-2.07666 3.05243,-6.25 l 0.10209,-4.72432 1.04257,3.25 c 0.57341,1.7875 1.34522,3.25 1.71513,3.25 0.36991,0 1.18096,-4.34454 1.80233,-9.65453 l 1.12978,-9.65452 -5.69699,-6.22107 c -3.13335,-3.42159 -6.74537,-8.08963 -8.0267,-10.37344 l -2.3297,-4.15237 7.8297,5.3267 c 4.30633,2.92969 12.10417,7.03584 17.32852,9.12479 l 9.49883,3.7981 3.84395,-4.34683 c 6.80341,-7.69344 15.66521,-18.95932 17.10767,-21.74873 l 1.40233,-2.7118 -8.05461,-4.70024 -8.0546,-4.70023 -12.37946,6.56726 -12.37946,6.56727 -4.39646,-3.60257 -4.39646,-3.60257 -12.84527,6.29239 c -7.06491,3.46081 -12.98561,6.35772 -13.15713,6.43758 -0.17152,0.0798 3.11304,5.42029 7.29903,11.86763 4.18599,6.44734 7.46506,11.86827 7.28683,12.04651 -0.17824,0.17823 -5.0378,-1.22414 -10.79904,-3.11638 -5.76123,-1.89224 -10.765559,-3.441 -11.120724,-3.44169 -0.355165,-6.9e-4 -2.155165,2.35601 -4,5.23713 L 88.5,218.47678 88,208.98839 87.5,199.5 85.666694,202.20161 C 83.508809,205.38154 81,213.25329 81,216.84405 c 0,2.74372 13.838113,25.17684 15.498104,25.12415 0.551043,-0.0175 1.789396,-0.6296 2.751896,-1.36025 z m 50.34439,-8.28709 c 1.70192,-1.27648 3.61442,-2.32086 4.25,-2.32086 1.83674,0 1.3995,-0.99638 -2.55499,-5.82232 l -3.71061,-4.5283 -1.76317,3.92531 c -0.96975,2.15892 -1.77497,5.86437 -1.7894,8.23433 -0.0284,4.67037 0.0179,4.67463 5.56817,0.51184 z M 169,225.62353 c 4.46456,-2.27539 4.49859,-2.33216 4.32133,-7.20849 -0.0983,-2.70327 -0.46858,-6.86245 -0.82291,-9.24262 l -0.64423,-4.32758 -5.81592,7.9398 c -3.95276,5.39624 -6.04725,9.30901 -6.53801,12.21383 l -0.72209,4.27402 2.86091,-0.67775 c 1.57351,-0.37277 4.88592,-1.70981 7.36092,-2.97121 z m 49.41874,-45.77896 c 3.26164,-4.84326 3.38593,-5.32161 2.05265,-7.8999 -2.21495,-4.28323 -10.20896,-10.57263 -18.97139,-14.92601 -12.1339,-6.0284 -12.65562,-6.03651 -25.91614,-0.40317 -6.29268,2.67326 -11.26383,5.03787 -11.04702,5.25469 0.21682,0.21682 2.99723,0.9281 6.17869,1.58063 l 5.78447,1.18642 -4.18215,2.16709 c -2.30018,1.19191 -4.45017,2.60076 -4.77774,3.13078 -0.32758,0.53003 2.45439,1.88552 6.18215,3.01222 3.72776,1.12669 13.97774,4.26012 22.77774,6.96319 8.8,2.70306 16.55054,4.954 17.22343,5.00208 0.67289,0.0481 2.78578,-2.23253 4.69531,-5.06802 z M 32.760587,164.04416 c 4.806677,-1.07572 18.639069,-5.35072 30.738648,-9.5 12.09958,-4.14929 23.12458,-7.59049 24.5,-7.64711 1.375421,-0.0566 -2.274317,-0.93474 -8.110528,-1.95137 -9.215248,-1.60524 -13.800178,-2.93805 -22.255041,-6.46942 -1.642006,-0.68583 -1.732154,-0.5288 -0.75,1.30637 1.587828,2.96688 1.436778,3.68309 -1.517142,7.19363 C 52.156631,150.791 45.144426,154.39376 30,160.00918 c -6.325,2.34526 -11.9275,4.65262 -12.45,5.12746 -1.654996,1.50406 6.095814,0.94736 15.210587,-1.09248 z M 216,61.434259 c 0,-3.669559 -1.4783,-5.94871 -5.45094,-8.40394 -2.98461,-1.844591 -5.15427,-2.17544 -15.34133,-2.339377 -11.79215,-0.189768 -11.91795,-0.217146 -20.46356,-4.453283 -6.49285,-3.218562 -10.45295,-6.098845 -16.17132,-11.761824 -7.82807,-7.752234 -8.93855,-8.073146 -5.65342,-1.633762 6.07041,11.898985 24.2182,25.016571 40.08057,28.971037 7.39844,1.844421 8.20237,1.950125 15.75,2.070889 7.14635,0.114343 7.25,0.07932 7.25,-2.44974 z"
       id="path3072"
       inkscape:connector-curvature="0" />
    <path
       style="fill:#333333;fill-opacity:1"
       d="m 102.64185,287.25 c -0.34091,-2.0625 -0.62479,-5.42594 -0.63084,-7.47432 -0.009,-3.02947 -0.52408,-4.00214 -2.76101,-5.21341 -1.5125,-0.819 -3.275607,-1.84681 -3.918016,-2.28403 -0.642409,-0.43721 -4.14142,-10.24118 -7.77558,-21.78659 L 80.948841,229.5 74.83788,223.75 C 71.476851,220.5875 68.367656,218 67.928559,218 c -0.439098,0 -1.950762,-0.43814 -3.359253,-0.97365 l -2.560894,-0.97365 2.101504,-5.27635 c 1.155827,-2.90199 2.32708,-5.83885 2.602783,-6.52635 C 67.096158,203.2938 64.535282,203 55.817088,203 42.626563,203 35.649052,201.50709 25.355255,196.48236 12.23776,190.0793 5.0853665,181.51728 1.4527578,167.86904 -0.74646555,159.60623 -0.50003072,135.217 1.8714441,126.43237 6.811898,108.1315 15.044841,97.935033 30.562022,90.899207 38.337511,87.373632 47.776237,85.034859 54.310154,85.014781 L 59.120308,85 58.523952,102.25 c -0.327996,9.4875 -0.806495,18.91319 -1.063332,20.94597 -0.971818,7.69164 3.074455,11.21401 16.67518,14.51609 6.14914,1.49294 11.852145,1.78794 34.5646,1.78794 14.96022,0 26.88522,0.27022 26.5,0.6005 -1.75062,1.50092 -23.15586,20.81118 -27.04197,24.39531 -7.52375,6.9391 -17.678961,13.98711 -25.046562,17.38306 C 77.245797,184.58272 76,185.56828 76,187.50515 c 0,3.18332 2.438779,3.54063 8.5,1.24536 10.018877,-3.79397 19.38519,-10.96607 41.2254,-31.56769 7.09597,-6.69355 16.02315,-14.67037 19.83818,-17.72627 23.58859,-18.89485 51.73226,-33.12842 79.98981,-40.454571 24.05131,-6.235629 41.32514,-4.602359 53.52611,5.060991 4.74024,3.75433 5.20083,2.54601 0.6705,-1.759 -12.98125,-12.335656 -38.03552,-13.666961 -69.01823,-3.667416 -21.38612,6.902286 -35.28604,13.422166 -52.51994,24.634946 l -9.28817,6.0431 -34.21183,-3.77843 c -32.421995,-3.58075 -51.560447,-6.04618 -52.233412,-6.72874 -0.325713,-0.33036 6.312707,-39.368771 9.017767,-53.030586 3.411364,-17.228983 9.656102,-34.354517 15.157063,-41.56665 4.202084,-5.509215 9.136249,-7.162727 21.450062,-7.188232 5.83182,-0.01208 13.44707,0.27527 16.92277,0.638553 l 6.31946,0.660514 -5.42277,2.468604 c -3.83724,1.746823 -7.84917,2.614456 -13.72145,2.967442 -6.96441,0.418635 -8.24671,0.759632 -7.97541,2.120882 0.26707,1.34009 1.7096,1.610959 8.29868,1.558275 6.99577,-0.05593 8.77327,-0.47213 14.47093,-3.38833 C 138.03752,18.396335 143.34426,17 153.78091,17 c 16.58226,0 49.66978,8.316968 55.72737,14.007783 2.48587,2.335353 7.51182,12.184823 11.22211,21.992217 2.55699,6.758887 5.58365,20.948327 6.78052,31.788048 l 0.6943,6.288049 6.14739,-0.782465 c 9.85322,-1.254156 27.48729,-0.701174 35.03412,1.098626 19.03073,4.53853 32.16569,17.343832 28.66636,27.946892 -3.2443,9.83035 -28.58354,23.61383 -48.70151,26.49157 l -4.71865,0.67498 -1.22371,6.99715 c -1.53878,8.79875 -3.18114,13.30169 -8.86629,24.30919 -4.40754,8.5338 -12.73423,19.14961 -16.67429,21.25827 -1.50641,0.8062 -3.20517,0.46442 -7.52786,-1.51458 C 207.27042,196.15008 204.30701,195 203.75541,195 c -0.64801,0 -0.82448,5.21964 -0.49868,14.75 0.55753,16.30894 2.00322,22.17576 6.70474,27.20875 l 2.77896,2.97489 -28.4757,18.58946 c -24.38413,15.91842 -28.87359,18.50208 -31.24488,17.98126 -2.59344,-0.56962 -2.99276,-0.17657 -6.29252,6.19371 l -3.52336,6.80193 -10.35198,0.62746 c -5.6936,0.34511 -14.68061,0.68261 -19.97115,0.75 L 103.26168,291 102.64185,287.25 z M 140,278.82515 c 1.925,-2.81781 3.8029,-5.90187 4.1731,-6.85346 0.41915,-1.0774 3.43747,-2.56109 8,-3.9325 10.96263,-3.29516 26.89479,-12.7264 42.96156,-25.43162 l 5.63465,-4.45576 -2.62545,-5.30507 c -2.39756,-4.84458 -2.62421,-6.34849 -2.61115,-17.32591 0.008,-6.61145 0.36061,-14.80713 0.78386,-18.2126 0.71944,-5.78849 0.62314,-6.27013 -1.47865,-7.39497 -2.0222,-1.08225 -2.57775,-0.82199 -5.52629,2.58897 -5.77238,6.67766 -7.61577,13.24352 -7.72012,27.49777 -0.0503,6.875 0.24571,14.01737 0.65788,15.87194 0.59472,2.67599 0.48616,3.15347 -0.52599,2.31346 -1.88905,-1.56777 -7.32954,1.40108 -10.4886,5.72359 -1.44345,1.97505 -2.9788,4.01053 -3.41189,4.52327 -0.45932,0.5438 -2.60866,-0.37565 -5.1582,-2.20659 -4.28082,-3.07425 -4.36152,-3.09045 -3.92117,-0.7869 0.45736,2.39252 -2.34305,9.56123 -3.73504,9.56123 -0.41998,0 -1.32381,-0.675 -2.0085,-1.5 -1.94673,-2.34567 -2.82633,-1.8117 -4.11815,2.5 -0.65913,2.2 -1.44007,4 -1.73542,4 -0.29535,0 -1.73898,-1.15158 -3.20808,-2.55907 l -2.6711,-2.55907 -2.17809,3.69161 -2.1781,3.6916 -2.45159,-2.30315 c -2.71801,-2.55344 -2.62148,-2.58128 -4.63032,1.33552 l -1.43475,2.79744 -3.81633,-3.03283 c -2.09897,-1.66806 -4.1617,-2.81938 -4.58383,-2.55849 -0.42213,0.26089 -1.0742,2.10913 -1.44904,4.10718 l -0.68152,3.63284 -2.73656,-2.62179 C 113.62201,262.17981 112.08924,261 111.72096,261 110.93082,261 108,266.44688 108,267.91536 c 0,0.6017 4.17173,1.13066 10.25,1.29966 l 10.25,0.28498 -10.37494,2.20827 c -5.70622,1.21456 -10.4714,2.33956 -10.5893,2.5 -0.1179,0.16045 -0.0161,2.18612 0.22614,4.50149 l 0.4405,4.20975 7.6488,0.339 c 4.20684,0.18645 10.5738,0.41796 14.1488,0.51446 l 6.5,0.17546 3.5,-5.12328 z M 105.99997,268.25 c -2e-5,-0.4125 -1.57502,-2.00668 -3.5,-3.54263 -3.906408,-3.11693 -4.182998,-2.92888 -1.97429,1.34229 1.35976,2.62948 5.47437,4.28331 5.47429,2.20034 z m 2.41485,-6.43185 C 109.91762,259.6726 109.08442,257 106.91274,257 c -1.3192,0 -3.12688,3.99958 -2.52113,5.57814 0.78126,2.03594 2.2606,1.75649 4.02321,-0.75999 z m 8.53929,-6.37344 c -0.92596,-1.11572 -1.54856,-1.19625 -2.58679,-0.3346 -1.67762,1.3923 -1.74874,3.10847 -0.19328,4.66393 1.816,1.816 4.46135,-2.30351 2.78007,-4.32933 z m -13.62668,-6.31602 c -0.79449,-5.17847 -1.05859,-5.60671 -3.30178,-5.35393 -4.791748,0.53998 -5.320558,5.15951 -1.363559,11.91162 l 2.662089,4.54251 1.43341,-2.73575 c 1.09269,-2.08549 1.22814,-4.07365 0.56984,-8.36445 z m 25.59872,9.0093 c 0.77929,-1.45611 0.49288,-2.33516 -1.31388,-4.03252 -2.26043,-2.12356 -2.35979,-2.1305 -4.59481,-0.3207 l -2.28441,1.84981 3.38348,2.16586 c 4.09013,2.61822 3.60718,2.58433 4.80962,0.33755 z m 9.24231,-2.60838 c 0.86067,-1.88895 0.8268,-2.83039 -0.14388,-4 -1.74199,-2.09897 -3.30156,-1.91699 -4.85233,0.56618 -1.11408,1.78393 -1.05241,2.37915 0.41444,4 2.28003,2.51941 3.22933,2.4021 4.58177,-0.56618 z M 111.98469,251.375 c 0.008,-1.71875 -0.27459,-4.57452 -0.62892,-6.34615 -0.59301,-2.96506 -0.88535,-3.17293 -3.67708,-2.61459 -1.66807,0.33362 -3.20719,0.7809 -3.42026,0.99397 -1.02981,1.02982 1.27641,8.07394 3.51402,10.73319 2.867,3.40724 4.18623,2.54082 4.21224,-2.76642 z m 10.24463,-2.50784 c -0.14887,-1.30194 -0.50655,-3.82851 -0.79483,-5.61461 l -0.52416,-3.24745 -3.95516,2.01777 C 114.77982,243.13265 113,244.18935 113,244.3711 c 0,1.69128 2.6856,7.3816 3.92536,8.31716 2.28822,1.72675 5.66054,-0.70275 5.30396,-3.8211 z m 25.70325,2.25883 c 0.70389,-1.31522 0.35843,-2.44332 -1.36097,-4.44431 C 143.51688,243.12668 143,243.28852 143,247.8 c 0,5.77744 2.6605,7.57139 4.93257,3.32599 z M 131.68891,250.75 c 0.51359,-0.6875 0.84994,-1.8125 0.74744,-2.5 -0.10249,-0.6875 -0.2426,-3.05 -0.31135,-5.25 -0.13999,-4.47955 -0.42233,-4.60937 -5.45339,-2.50726 -3.46547,1.44797 -3.53987,1.59044 -2.48052,4.75 1.95665,5.83576 5.37612,8.34741 7.49782,5.50726 z m 23.52705,-0.29929 c 0.30211,-0.30212 0.1979,-2.21462 -0.23157,-4.25 -0.42948,-2.03539 -1.07924,-5.83821 -1.4439,-8.45071 -0.36467,-2.6125 -0.97296,-4.74999 -1.35176,-4.74997 -0.3788,2e-5 -1.94538,1.57497 -3.48129,3.49991 l -2.79256,3.49987 3.79256,5.46215 c 3.76494,5.42238 4.45235,6.04492 5.50852,4.98875 z M 141.88169,240.75 c 0.13666,-4.33159 -1.65707,-4.97462 -4.88169,-1.75 -2.70971,2.70971 -2.51546,4.85116 0.75,8.26827 l 2.75,2.8777 0.63169,-2.82298 c 0.34742,-1.55265 0.68492,-4.51049 0.75,-6.57299 z m 25.09917,1.66515 C 165.71817,236.81653 163.88023,233 162.44677,233 c -0.72082,0 -2.23439,1.29737 -3.36349,2.88305 l -2.05292,2.88305 4.23482,3.57201 c 5.52818,4.66294 6.7537,4.67945 5.71568,0.077 z M 99.25,240.60795 c 1.03973,-0.78926 1.76794,-2.70423 1.7942,-4.71819 l 0.0442,-3.38976 1.9797,3.75 c 2.10733,3.99179 2.21244,4.0495 5.68191,3.11971 1.71787,-0.46037 2.2562,-1.34402 2.27622,-3.73634 l 0.0262,-3.13337 1.72377,3.72205 1.72378,3.72204 3.25,-1.59695 c 2.39631,-1.17747 3.2668,-2.28649 3.31395,-4.22204 0.0632,-2.5939 0.0832,-2.58648 1.68143,0.6249 1.84496,3.70709 2.25378,3.81891 6.30428,1.72432 2.61376,-1.35163 2.95902,-2.06463 3.02642,-6.25 l 0.0761,-4.72432 1.17392,3.17823 c 0.64566,1.74803 1.42414,3.42325 1.72997,3.72272 0.30582,0.29946 1.12068,-3.97983 1.81079,-9.50954 l 1.25474,-10.05402 -4.3523,-4.66869 c -3.69741,-3.96619 -8.5921,-10.50229 -11.09176,-14.81133 -0.36456,-0.62844 2.84409,1.20469 7.13033,4.07363 6.74493,4.51465 17.89554,9.90192 24.78422,11.97419 1.71342,0.51543 3.48318,-0.96743 9.77808,-8.19297 C 171.02466,193.57391 179,182.92304 179,181.67442 c 0,-0.22247 -3.62379,-2.51005 -8.05287,-5.08352 l -8.05288,-4.67904 -12.41213,6.46099 -12.41213,6.46099 -4.47708,-3.4185 -4.47707,-3.4185 -11.95666,5.88449 c -6.57617,3.23648 -12.56473,6.08982 -13.30792,6.34077 -0.93702,0.31639 1.02456,4.02877 6.39874,12.10989 4.2625,6.40949 7.75,11.83994 7.75,12.06768 0,0.22774 -4.96007,-1.13936 -11.02237,-3.03799 -6.0623,-1.89864 -11.45696,-3.18347 -11.988133,-2.85519 -0.531172,0.32828 -2.208606,2.71112 -3.727632,5.29519 L 88.5,218.5 88,209 c -0.491728,-9.34284 -0.528322,-9.45837 -2.211929,-6.98363 C 83.393126,205.53671 81,212.67736 81,216.30311 c 0,3.43013 13.303096,25.7193 15.317984,25.66509 0.650109,-0.0175 1.969516,-0.6296 2.932016,-1.36025 z m 50.28214,-8.1402 c 1.66767,-1.23045 3.80239,-2.40156 4.74382,-2.60247 1.39311,-0.29729 0.94311,-1.26195 -2.41777,-5.18293 l -4.12946,-4.81765 -1.85777,2.81765 c -1.22008,1.85045 -1.86004,4.64004 -1.86437,8.12667 -0.007,5.74352 -0.01,5.74276 5.52555,1.65873 z m 17.44988,-5.5447 c 7.39884,-3.35608 7.76148,-3.95717 6.72799,-11.15194 -1.74371,-12.13913 -1.13126,-11.91262 -7.85173,-2.90396 -4.27368,5.72878 -6.20231,9.27888 -6.58307,12.11771 -0.64482,4.80742 0.65862,5.13522 7.70681,1.93819 z M 218.46549,180.25 c 1.91671,-2.6125 3.49608,-5.3485 3.50972,-6.08 0.0136,-0.7315 -2.58557,-3.94036 -5.77601,-7.1308 -4.21846,-4.21846 -8.39091,-7.06081 -15.29611,-10.42 -5.22243,-2.54056 -10.59957,-4.62585 -11.94921,-4.63398 -2.70197,-0.0163 -25.20195,9.10005 -24.41128,9.89072 0.27112,0.27111 3.07244,1.01359 6.22517,1.64996 l 5.73223,1.15702 -5.34943,2.72577 c -2.94219,1.49918 -5.15733,2.91789 -4.92252,3.15269 0.58547,0.58548 45.96594,14.33016 47.51223,14.39034 0.68216,0.0266 2.8085,-2.08922 4.72521,-4.70172 z M 40.5,162.15132 c 5.5,-1.63031 17.2,-5.44226 26,-8.47098 8.8,-3.02872 17.781642,-5.83857 19.959204,-6.24409 5.013364,-0.93364 2.840493,-1.86654 -6.520235,-2.79939 -5.617152,-0.55978 -15.729879,-3.34602 -22.305303,-6.14552 -1.664482,-0.70866 -1.739606,-0.55781 -0.694601,1.3948 3.322811,6.20873 -4.90289,12.12629 -28.658412,20.61685 -5.292677,1.89167 -10.10851,3.95958 -10.701851,4.59536 -1.918513,2.05571 12.143392,0.24775 22.921198,-2.94703 z M 216,61.222506 c 0,-1.527621 -0.70232,-3.780191 -1.5607,-5.005711 -2.97892,-4.252991 -6.89155,-5.382373 -19.31157,-5.574284 C 183.92252,50.46937 183.22747,50.329073 176,46.781504 167.60656,42.661625 159.35045,36.236905 154.17245,29.795789 L 150.71907,25.5 l 0.62491,3.297213 c 1.49573,7.891968 13.90835,20.509912 26.74674,27.189175 9.9356,5.169065 20.23939,7.888072 30.15928,7.95855 L 216,64 l 0,-2.777494 z"
       id="path3070"
       inkscape:connector-curvature="0" />
  </g>
</svg>
